<svg width="80" height="80" viewBox="0 0 80 80" fill="none" xmlns="http://www.w3.org/2000/svg">
<g clip-path="url(#clip0_827_32)">
<g filter="url(#filter0_d_827_32)">
<path d="M65.8514 4.00058H15.1491C11.2254 4.00058 8 7.27154 8 11.2461V72.5718C8 76.4855 11.9237 79.0757 15.4705 77.5619L37.8103 67.8213C39.6471 67.0226 41.6863 67.0226 43.4557 67.8213L65.4939 77.501C69.0367 79.0413 73 76.4246 73 72.5109V11.2455C73 7.27095 69.7751 4.00058 65.8514 4.00058ZM56.191 32.5983L50.0575 39.2466C49.8155 39.5091 49.7163 39.8552 49.7679 40.2013L51.0652 48.4356C51.208 49.3561 50.2241 50.0711 49.3076 49.7136L41.024 46.3971C40.6907 46.2639 40.3217 46.2639 40.0044 46.3971L32.3197 49.6413C31.3993 50.0255 30.3796 49.3066 30.5344 48.3786L31.8198 40.2127C31.8714 39.8552 31.7563 39.4976 31.4905 39.2238L24.9524 32.5983C24.2502 31.8946 24.6826 30.7499 25.7022 30.6053L34.6882 29.3882C35.1087 29.3273 35.4658 29.0877 35.6443 28.7302L39.3657 21.6673C39.8378 20.7811 41.1867 20.7811 41.6469 21.6673L45.3683 28.7302C45.5587 29.0877 45.9158 29.3273 46.3244 29.3882L55.3976 30.6167C56.3934 30.7498 56.8378 31.8718 56.1752 32.5754L56.191 32.5983Z" fill="#663399"/>
</g>
</g>
<defs>
<filter id="filter0_d_827_32" x="6" y="3.00058" width="69" height="77.9994" filterUnits="userSpaceOnUse" color-interpolation-filters="sRGB">
<feFlood flood-opacity="0" result="BackgroundImageFix"/>
<feColorMatrix in="SourceAlpha" type="matrix" values="0 0 0 0 0 0 0 0 0 0 0 0 0 0 0 0 0 0 127 0" result="hardAlpha"/>
<feOffset dy="1"/>
<feGaussianBlur stdDeviation="1"/>
<feComposite in2="hardAlpha" operator="out"/>
<feColorMatrix type="matrix" values="0 0 0 0 0 0 0 0 0 0 0 0 0 0 0 0 0 0 0.25 0"/>
<feBlend mode="normal" in2="BackgroundImageFix" result="effect1_dropShadow_827_32"/>
<feBlend mode="normal" in="SourceGraphic" in2="effect1_dropShadow_827_32" result="shape"/>
</filter>
<clipPath id="clip0_827_32">
<rect width="80" height="80" fill="white"/>
</clipPath>
</defs>
</svg>
