<svg width="80" height="80" viewBox="0 0 80 80" fill="none" xmlns="http://www.w3.org/2000/svg">
<g filter="url(#filter0_d_837_33)">
<path fill-rule="evenodd" clip-rule="evenodd" d="M11 3C6.58179 3 3 6.58172 3 11V69C3 73.4183 6.58179 77 11 77H69C73.4182 77 77 73.4183 77 69V11C77 6.58173 73.4182 3 69 3H11ZM24 26.3537C24 27.586 24.0952 28.7954 24.2854 29.982C24.4282 30.8036 24.7375 31.6251 25.2134 32.4466C25.7368 33.2224 26.3555 33.8614 27.0693 34.3634C27.783 34.8654 28.5681 35.1393 29.4248 35.1849C30.2812 35.1849 31.1377 34.797 31.9944 34.0211C32.5178 33.5647 32.8271 33.0855 32.9224 32.5835C33.0649 32.0815 33.0889 31.5794 32.9937 31.0774C32.946 30.5297 32.8271 29.982 32.6367 29.4344C32.4939 28.8411 32.3989 28.2706 32.3513 27.7229C32.3037 26.8101 32.5178 25.9886 32.9937 25.2584C33.5171 24.5282 34.1833 23.912 34.9922 23.41C35.8013 22.8623 36.6814 22.4744 37.6333 22.2462C38.585 21.9724 39.489 21.8583 40.3455 21.9039C41.2974 21.9495 42.1775 22.2234 42.9866 22.7254C43.7954 23.1818 44.4856 23.7751 45.0564 24.5053C45.6274 25.1899 46.0559 25.9886 46.3413 26.9014C46.6267 27.7685 46.6982 28.6357 46.5554 29.5028C46.4126 30.4613 46.1509 31.3056 45.7703 32.0358C45.3896 32.766 44.9375 33.4506 44.4141 34.0896C43.8906 34.7285 43.3196 35.3447 42.7009 35.938C42.0825 36.4856 41.4639 37.1018 40.8452 37.7864C39.7507 39.0643 38.8228 40.4334 38.0615 41.8939C37.3 43.3087 36.7766 44.8148 36.4912 46.4122C36.396 47.0968 36.3247 47.8955 36.2771 48.8083C36.2295 49.6754 36.3008 50.5197 36.4912 51.3412C36.729 52.1171 37.0859 52.8017 37.5618 53.395C38.0852 53.9427 38.8467 54.2393 39.8459 54.285C41.321 54.3306 42.3203 53.897 42.8438 52.9843C43.4148 52.0258 43.7717 50.9077 43.9146 49.6298C44.1047 48.3062 44.2952 47.1196 44.4856 46.0699C44.6758 44.9745 45.2944 43.902 46.3413 42.8523C47.2454 41.8939 48.2209 41.0039 49.2678 40.1824C50.3147 39.3153 51.2427 38.3569 52.0515 37.3072L52.1228 37.1702C53.1223 35.7098 53.8599 34.1352 54.3357 32.4466C54.8591 30.7123 55.0732 28.978 54.978 27.2437C54.9304 25.5094 54.5259 23.8436 53.7646 22.2462C53.0508 20.6032 51.9563 19.1655 50.4812 17.9333C49.1013 16.7923 47.6262 15.9251 46.0559 15.3318C44.533 14.6929 42.939 14.2821 41.2734 14.0996C39.6555 13.917 37.99 13.9855 36.2771 14.305C34.6116 14.5788 32.9697 15.0808 31.3521 15.8111C29.8291 16.4956 28.4729 17.4312 27.2834 18.6179C26.0938 19.8045 25.2373 21.1737 24.7139 22.7254C24.2854 23.912 24.0476 25.1215 24 26.3537ZM43.272 64.4939C44.3188 63.4442 44.8423 62.2576 44.8423 60.934C44.8423 59.5649 44.3188 58.3782 43.272 57.3742C42.2727 56.3245 41.1069 55.7996 39.7744 55.7996C38.4897 55.7996 37.3477 56.3245 36.3484 57.3742C35.3491 58.3326 34.8494 59.5192 34.8494 60.934C34.8494 62.2119 35.3491 63.3986 36.3484 64.4939C37.3477 65.498 38.4897 66 39.7744 66C41.1069 66 42.2727 65.498 43.272 64.4939Z" fill="#663399"/>
</g>
<defs>
<filter id="filter0_d_837_33" x="1" y="2" width="78" height="78" filterUnits="userSpaceOnUse" color-interpolation-filters="sRGB">
<feFlood flood-opacity="0" result="BackgroundImageFix"/>
<feColorMatrix in="SourceAlpha" type="matrix" values="0 0 0 0 0 0 0 0 0 0 0 0 0 0 0 0 0 0 127 0" result="hardAlpha"/>
<feOffset dy="1"/>
<feGaussianBlur stdDeviation="1"/>
<feComposite in2="hardAlpha" operator="out"/>
<feColorMatrix type="matrix" values="0 0 0 0 0 0 0 0 0 0 0 0 0 0 0 0 0 0 0.25 0"/>
<feBlend mode="normal" in2="BackgroundImageFix" result="effect1_dropShadow_837_33"/>
<feBlend mode="normal" in="SourceGraphic" in2="effect1_dropShadow_837_33" result="shape"/>
</filter>
</defs>
</svg>
