<svg width="80" height="80" viewBox="0 0 80 80" fill="none" xmlns="http://www.w3.org/2000/svg">
<g filter="url(#filter0_d_837_34)">
<path fill-rule="evenodd" clip-rule="evenodd" d="M11 3C6.58172 3 3 6.58172 3 11V69C3 73.4183 6.58172 77 11 77H69C73.4183 77 77 73.4183 77 69V11C77 6.58172 73.4183 3 69 3H11ZM24 26.3537C24 27.586 24.0952 28.7954 24.2855 29.982C24.4283 30.8036 24.7376 31.6251 25.2134 32.4466C25.7369 33.2224 26.3555 33.8614 27.0693 34.3634C27.783 34.8654 28.5682 35.1393 29.4247 35.1849C30.2813 35.1849 31.1378 34.797 31.9943 34.0211C32.5178 33.5647 32.8271 33.0855 32.9222 32.5835C33.065 32.0815 33.0888 31.5794 32.9936 31.0774C32.946 30.5297 32.8271 29.982 32.6367 29.4344C32.494 28.8411 32.3988 28.2706 32.3512 27.7229C32.3036 26.8101 32.5178 25.9886 32.9936 25.2584C33.5171 24.5282 34.1833 23.912 34.9922 23.41C35.8012 22.8623 36.6815 22.4744 37.6332 22.2462C38.5849 21.9724 39.489 21.8583 40.3456 21.9039C41.2973 21.9495 42.1776 22.2234 42.9865 22.7254C43.7955 23.1818 44.4855 23.7751 45.0565 24.5053C45.6275 25.1899 46.0558 25.9886 46.3413 26.9014C46.6268 27.7685 46.6982 28.6357 46.5554 29.5028C46.4127 30.4613 46.151 31.3056 45.7703 32.0358C45.3896 32.766 44.9375 33.4506 44.4141 34.0896C43.8907 34.7285 43.3196 35.3447 42.701 35.938C42.0824 36.4856 41.4638 37.1018 40.8452 37.7864C39.7507 39.0643 38.8228 40.4334 38.0615 41.8939C37.3001 43.3087 36.7767 44.8148 36.4911 46.4122C36.396 47.0968 36.3246 47.8955 36.277 48.8083C36.2294 49.6754 36.3008 50.5197 36.4911 51.3412C36.7291 52.1171 37.086 52.8017 37.5618 53.395C38.0853 53.9427 38.8466 54.2393 39.8459 54.285C41.3211 54.3306 42.3203 53.897 42.8438 52.9842C43.4148 52.0258 43.7717 50.9077 43.9145 49.6298C44.1048 48.3062 44.2951 47.1196 44.4855 46.0699C44.6758 44.9746 45.2944 43.902 46.3413 42.8523C47.2454 41.8939 48.2209 41.0039 49.2678 40.1824C50.3147 39.3153 51.2426 38.3569 52.0515 37.3072L52.1229 37.1702C53.1222 35.7098 53.8598 34.1352 54.3356 32.4466C54.8591 30.7123 55.0732 28.978 54.978 27.2437C54.9305 25.5094 54.526 23.8436 53.7646 22.2462C53.0508 20.6032 51.9564 19.1655 50.4812 17.9333C49.1013 16.7923 47.6261 15.9251 46.0558 15.3318C44.5331 14.6929 42.939 14.2821 41.2735 14.0996C39.6556 13.917 37.9901 13.9855 36.277 14.305C34.6115 14.5788 32.9698 15.0808 31.3519 15.811C29.8292 16.4956 28.473 17.4312 27.2834 18.6179C26.0938 19.8045 25.2372 21.1737 24.7138 22.7254C24.2855 23.912 24.0476 25.1215 24 26.3537ZM43.2721 64.4939C44.3189 63.4442 44.8424 62.2576 44.8424 60.934C44.8424 59.5649 44.3189 58.3782 43.2721 57.3742C42.2728 56.3245 41.1069 55.7996 39.7745 55.7996C38.4897 55.7996 37.3477 56.3245 36.3484 57.3742C35.3491 58.3326 34.8495 59.5192 34.8495 60.934C34.8495 62.2119 35.3491 63.3986 36.3484 64.4939C37.3477 65.498 38.4897 66 39.7745 66C41.1069 66 42.2728 65.498 43.2721 64.4939Z" fill="white"/>
</g>
<defs>
<filter id="filter0_d_837_34" x="1" y="2" width="78" height="78" filterUnits="userSpaceOnUse" color-interpolation-filters="sRGB">
<feFlood flood-opacity="0" result="BackgroundImageFix"/>
<feColorMatrix in="SourceAlpha" type="matrix" values="0 0 0 0 0 0 0 0 0 0 0 0 0 0 0 0 0 0 127 0" result="hardAlpha"/>
<feOffset dy="1"/>
<feGaussianBlur stdDeviation="1"/>
<feComposite in2="hardAlpha" operator="out"/>
<feColorMatrix type="matrix" values="0 0 0 0 0 0 0 0 0 0 0 0 0 0 0 0 0 0 0.25 0"/>
<feBlend mode="normal" in2="BackgroundImageFix" result="effect1_dropShadow_837_34"/>
<feBlend mode="normal" in="SourceGraphic" in2="effect1_dropShadow_837_34" result="shape"/>
</filter>
</defs>
</svg>
